<?xml version="1.0" standalone="no"?>
<!DOCTYPE svg PUBLIC "-//W3C//DTD SVG 20010904//EN"
 "http://www.w3.org/TR/2001/REC-SVG-20010904/DTD/svg10.dtd">
<svg version="1.0" xmlns="http://www.w3.org/2000/svg"
 width="512.000000pt" height="512.000000pt" viewBox="0 0 512.000000 512.000000"
 preserveAspectRatio="xMidYMid meet">
<metadata>
Created by potrace 1.14, written by Peter Selinger 2001-2017
</metadata>
<g transform="translate(0.000000,512.000000) scale(0.100000,-0.100000)"
fill="#000000" stroke="none">
<path d="M2768 4265 c-2 -2 -38 -6 -80 -9 -90 -8 -95 -9 -205 -37 -301 -75
-519 -224 -713 -489 -23 -30 -48 -59 -57 -63 -8 -5 -43 -6 -77 -2 -82 10 -252
11 -301 2 -149 -27 -265 -86 -366 -187 -85 -85 -132 -166 -174 -302 l-27 -86
-91 -48 c-110 -56 -133 -71 -215 -142 -132 -114 -222 -286 -258 -487 -9 -52
-8 -229 1 -280 55 -299 201 -517 440 -654 76 -43 238 -106 305 -117 14 -3 32
-7 40 -9 33 -10 131 -18 235 -20 97 -2 119 -6 187 -33 100 -40 178 -61 303
-79 67 -10 385 -10 460 0 69 10 276 53 320 67 17 6 50 12 75 15 87 11 105 14
151 20 36 5 58 2 105 -18 249 -105 540 -108 814 -8 64 24 86 28 117 21 55 -12
168 -23 243 -23 67 0 210 12 221 19 4 2 24 6 45 10 64 10 196 62 275 108 169
100 291 251 347 431 33 104 37 137 37 280 0 144 -6 192 -37 280 -88 254 -243
414 -516 531 -17 8 -47 20 -65 28 -17 8 -42 17 -53 21 -12 3 -38 20 -57 38
-30 29 -37 46 -57 132 -50 222 -117 395 -204 530 -182 283 -470 469 -836 540
-67 13 -323 28 -332 20z"/>
</g>
</svg>
